<?xml version="1.0" encoding="UTF-8"?><svg id="Layer_1" xmlns="http://www.w3.org/2000/svg" viewBox="0 0 5193.59 1457.1"><defs><style>.cls-1{fill:#fff;}.cls-2{fill:#0b109f;}</style></defs><path class="cls-2" d="M5073.69,0c112.35,14.2,145.63,134.26,100.32,227.2l-646.5,1112.51c-49.23,68.5-125.8,111.31-210.46,117.39H132.29c-110.92-9.97-161.39-126.71-115.22-223.29C228.52,879.04,424.82,514.9,636.87,160.55,695.8,62.06,754.44,12.63,873.95,1.84l3.18-1.84h4196.56Z"/><path class="cls-1" d="M1714.84,509.65c1.41,1.25-15.62,29.74-17.65,33.32-81.13,143.18-164.33,291.47-249.91,431.71-3.27,5.36-7.44,15.45-13.38,16.6l-509.88.14c-214.26-43.83-379.61-260.48-232.46-466.41,153.39-214.66,565.58-264.79,810.27-273.27l2036.37.09-71.35,123.52-2069,.29c-93.55,6.02-186.02,23.47-268.16,69.7-80.07,45.06-197.37,145.39-204.66,243.1-10.54,141.26,121.29,166.97,232.91,167.04l77.65-.05,131.37-223.88h-115.96l70.98-121.92h392.87Z"/><path class="cls-1" d="M1887.79,849.42c-25.66,36.76-40.71,84.59-24.51,128.43,10.58,28.63,35.04,54.63,58.58,73.4l.7,4.66-116.36,121.02c-13.48-9.8-27.31-19.34-40.31-29.77-139.56-112.08-208.61-246.88-93.47-409.11,128.9-181.6,392.41-272.6,605.52-300.07,120.23-15.49,241.44-11.89,362.58-12.26l-78.18,136.68-6.66,3.34c-170.69.47-447.19-20.43-567.96,127.76-2.69,3.3-6.73,7.61-6.97,12.02h234.92l53.98-89.94h260.91l-216.93,375.74h-260.91l79.97-141.9h-244.92Z"/><polygon class="cls-1" points="3438.25 425.71 2882.44 849.42 3194.34 849.42 3111.37 991.32 2392.61 991.32 2952.42 563.61 2642.53 563.61 2717.5 425.71 3438.25 425.71"/><polygon class="cls-1" points="3886.1 425.71 3561.21 991.32 3244.32 991.32 3567.21 425.71 3886.1 425.71"/><path class="cls-1" d="M3986.07,251.83c-20.65,42.47-49.03,81.71-69.98,123.92h-319.89l70.98-123.92h318.89Z"/><path class="cls-1" d="M1936.62,1274.35l106.45-157.41h-81.81l21.34-31.59h201.15l-21.34,31.59h-81.81l-106.45,157.41h-37.53Z"/><path class="cls-1" d="M2115.63,1274.35l127.79-189h184.14l-20.6,30.51h-146.61l-86.58,127.98h146.61l-20.6,30.51h-184.14ZM2203.64,1192.28l18.91-27.81h132.57l-18.91,27.81h-132.57Z"/><path class="cls-1" d="M2479.82,1277.59c-36.54,0-61.73-5.71-75.56-17.15-13.84-11.43-12.57-29.11,3.78-53.05l2.43-3.78h37.8l-1.93,3.24c-9.63,14.94-9.75,25.65-.37,32.13,9.38,6.48,25.41,9.72,48.09,9.72,16.74,0,31.18-1.03,43.31-3.1,12.13-2.07,22.28-5.49,30.44-10.26,8.16-4.77,13.86-10.94,17.09-18.5,2.77-6.48,1.96-11.52-2.45-15.12-4.4-3.6-10.77-6.08-19.1-7.42-8.33-1.35-20.06-2.65-35.18-3.92-19.26-1.26-34.69-3.06-46.29-5.4-11.6-2.34-20.45-6.7-26.53-13.09-6.09-6.39-6.44-15.88-1.05-28.48,8.31-19.44,24.61-34.51,48.9-45.23,24.29-10.71,54.43-16.06,90.43-16.06,21.96,0,40.14,2.43,54.53,7.29,14.39,4.86,23.37,12.38,26.95,22.54,3.57,10.17.23,22.82-10.01,37.94l-1.46,2.16h-38.07l1.35-1.89c5.67-8.64,7.1-15.88,4.3-21.74-2.81-5.85-8.82-10.21-18.03-13.09-9.21-2.88-20.47-4.32-33.79-4.32-22.68,0-41.63,2.43-56.85,7.29-15.22,4.86-25.1,12.6-29.64,23.22-2.46,5.76-1.55,10.26,2.73,13.5,4.28,3.24,10.33,5.4,18.15,6.48,7.82,1.08,19.14,2.16,33.98,3.24,19.98,1.26,35.93,3.11,47.85,5.54,11.92,2.43,21.07,7.02,27.46,13.77,6.38,6.75,6.77,16.7,1.15,29.83-8.77,20.52-25.59,36.27-50.44,47.25-24.86,10.98-56.18,16.47-93.98,16.47Z"/><path class="cls-1" d="M2703.42,1274.35l106.45-157.41h-81.81l21.34-31.59h201.15l-21.34,31.59h-81.81l-106.45,157.41h-37.53Z"/><path class="cls-1" d="M2882.42,1274.35l127.79-189h184.14l-20.6,30.51h-146.61l-86.58,127.98h146.61l-20.61,30.51h-184.14ZM2970.44,1192.28l18.91-27.81h132.57l-18.91,27.81h-132.57Z"/><g id="Cg1FXq"><polygon class="cls-1" points="3693.45 990.38 4017.33 427.71 4337.06 426.94 4397.27 612.62 4505.21 426.74 4805.12 426.74 4319.01 1274.35 3244.32 1274.35 3316.11 1149.73 4089.76 1148.12 4268.91 837.02 4188.31 616.63 3973.36 990.38 3693.45 990.38"/><path class="cls-1" d="M1663.78,1274.35H256.19l72.9-126.07,1215.73.15c2.5.06,3.5,1.31,4.83,3.17,4.04,5.64,9.19,22.1,13.82,30.15,10.64,18.49,29.17,38.67,45.39,52.56,17.15,14.69,38.13,25.52,54.92,40.03Z"/><polygon class="cls-1" points="4905.09 252.85 4836.11 374.77 4049.34 374.77 4117.32 252.85 4905.09 252.85"/></g></svg>